<svg xmlns="http://www.w3.org/2000/svg" version="1.1" xmlns:xlink="http://www.w3.org/1999/xlink" xmlns:svgjs="http://svgjs.dev/svgjs" width="1440" height="560" preserveAspectRatio="none" viewBox="0 0 1440 560"><g clip-path="url(&quot;#SvgjsClipPath1087&quot;)" fill="none"><path d="M371.55 518.92C392.63 518.62 411.8 508.92 427.37 494.71 443.82 479.7 457.15 461.06 459.22 438.89 461.48 414.64 455.78 389.1 438.83 371.61 421.67 353.9 396.21 348.08 371.55 348.45 347.3 348.81 324.01 357.08 306.25 373.59 287.79 390.74 272.61 413.74 274.22 438.89 275.77 463.07 295.39 480.94 314.11 496.33 330.63 509.92 350.16 519.23 371.55 518.92" fill="rgba(238, 0, 0, 1)" stroke="none"></path><path d="M361.55 525.92C382.63 525.62 401.8 515.92 417.37 501.71 433.82 486.7 447.15 468.06 449.22 445.89 451.48 421.64 445.78 396.1 428.83 378.61 411.67 360.9 386.21 355.08 361.55 355.45 337.3 355.81 314.01 364.08 296.25 380.59 277.79 397.74 262.61 420.74 264.22 445.89 265.77 470.07 285.39 487.94 304.11 503.33 320.63 516.92 340.16 526.23 361.55 525.92" fill="none" stroke-width="6" stroke="#a70000"></path><path d="M999.76 581.97C1019.81 583.79 1041.17 580.02 1055.62 566.01 1070.24 551.84 1074.74 530.49 1073.81 510.15 1072.92 490.78 1065.2 472.09 1050.72 459.19 1036.97 446.94 1018.16 444.88 999.76 444.19 980.36 443.47 959.13 442.09 944.85 455.24 930.22 468.71 926.47 490.33 928.1 510.15 929.6 528.42 940.25 543.73 953.2 556.71 966.17 569.71 981.48 580.31 999.76 581.97" fill="rgba(238, 0, 0, 1)" stroke="none"></path><path d="M984.76 563.97C1004.81 565.79 1026.17 562.02 1040.62 548.01 1055.24 533.84 1059.74 512.49 1058.81 492.15 1057.92 472.78 1050.2 454.09 1035.72 441.19 1021.97 428.94 1003.16 426.88 984.76 426.19 965.36 425.47 944.13 424.09 929.85 437.24 915.22 450.71 911.47 472.33 913.1 492.15 914.6 510.42 925.25 525.73 938.2 538.71 951.17 551.71 966.48 562.31 984.76 563.97" fill="none" stroke-width="6" stroke="#a70000"></path><path d="M294.06 126.87C321.29 126.39 344.17 108.69 362.87 88.9 380.94 69.78 394.09 46.39 394.95 20.09 395.84-7.08 387.34-34.76 367.54-53.39 348.23-71.56 320.57-75.61 294.06-74.83 268.47-74.08 243.63-66.51 224.77-49.2 205.05-31.1 191-6.68 190.62 20.09 190.24 47.18 203.95 71.89 222.8 91.35 242 111.17 266.47 127.35 294.06 126.87" fill="rgba(22, 67, 124, 1)" stroke="none"></path><path d="M282.06 109.87C309.29 109.39 332.17 91.69 350.87 71.9 368.94 52.78 382.09 29.39 382.95 3.09 383.84-24.08 375.34-51.76 355.54-70.39 336.23-88.56 308.57-92.61 282.06-91.83 256.47-91.08 231.63-83.51 212.77-66.2 193.05-48.1 179-23.68 178.62 3.09 178.24 30.18 191.95 54.89 210.8 74.35 230 94.17 254.47 110.35 282.06 109.87" fill="none" stroke-width="6" stroke="#0f2f57"></path><path d="M1083.33 67.46C1100.65 68.18 1118.9 67 1131.93 55.56 1145.64 43.51 1151.8 25.21 1152.2 6.96 1152.61-11.72 1148.43-31.83 1134.13-43.84 1120.52-55.27 1101.1-50.98 1083.33-50.89 1065.7-50.8 1046.24-55.02 1033.02-43.35 1019.37-31.3 1016.74-11.22 1017.81 6.96 1018.82 24.02 1026.06 40.08 1038.62 51.67 1050.69 62.82 1066.91 66.78 1083.33 67.46" fill="rgba(22, 67, 124, 1)" stroke="none"></path><path d="M1088.33 83.46C1105.65 84.18 1123.9 83 1136.93 71.56 1150.64 59.51 1156.8 41.21 1157.2 22.96 1157.61 4.28 1153.43-15.83 1139.13-27.84 1125.52-39.27 1106.1-34.98 1088.33-34.89 1070.7-34.8 1051.24-39.02 1038.02-27.35 1024.37-15.3 1021.74 4.78 1022.81 22.96 1023.82 40.02 1031.06 56.08 1043.62 67.67 1055.69 78.82 1071.91 82.78 1088.33 83.46" fill="none" stroke-width="6" stroke="#0f2f57"></path><path d="M1150.45 379.17C1170.05 378.28 1190.24 377.2 1205.11 364.41 1221.02 350.73 1230.8 330.73 1231.15 309.75 1231.51 288.45 1221.65 268.67 1206.98 253.22 1191.88 237.32 1172.33 223.26 1150.45 224.76 1129.41 226.2 1114.91 244.47 1101.16 260.46 1088.8 274.84 1079.21 290.88 1077.38 309.75 1075.33 330.89 1075.18 354.99 1090.58 369.62 1105.81 384.09 1129.46 380.12 1150.45 379.17" fill="rgba(22, 67, 124, 1)" stroke="none"></path><path d="M1136.45 362.17C1156.05 361.28 1176.24 360.2 1191.11 347.41 1207.02 333.73 1216.8 313.73 1217.15 292.75 1217.51 271.45 1207.65 251.67 1192.98 236.22 1177.88 220.32 1158.33 206.26 1136.45 207.76 1115.41 209.2 1100.91 227.47 1087.16 243.46 1074.8 257.84 1065.21 273.88 1063.38 292.75 1061.33 313.89 1061.18 337.99 1076.58 352.62 1091.81 367.09 1115.46 363.12 1136.45 362.17" fill="none" stroke-width="6" stroke="#0f2f57"></path><path d="M1233.83 632.05C1257.92 631.25 1284.27 630.99 1300.85 613.5 1317.17 596.27 1317 570.12 1314.91 546.48 1313.04 525.27 1304.94 505.48 1289.97 490.34 1274.91 475.1 1255.13 466.81 1233.83 464.43 1209.29 461.69 1181.8 459.57 1163.56 476.21 1144.89 493.25 1144.16 521.2 1143.92 546.48 1143.67 572.1 1143.64 600.45 1162.2 618.11 1180.52 635.54 1208.55 632.89 1233.83 632.05" fill="rgba(238, 0, 0, 1)" stroke="none"></path><path d="M1215.83 617.05C1239.92 616.25 1266.27 615.99 1282.85 598.5 1299.17 581.27 1299 555.12 1296.91 531.48 1295.04 510.27 1286.94 490.48 1271.97 475.34 1256.91 460.1 1237.13 451.81 1215.83 449.43 1191.29 446.69 1163.8 444.57 1145.56 461.21 1126.89 478.25 1126.16 506.2 1125.92 531.48 1125.67 557.1 1125.64 585.45 1144.2 603.11 1162.52 620.54 1190.55 617.89 1215.83 617.05" fill="none" stroke-width="6" stroke="#a70000"></path><path d="M46.82 369.52C63.32 369.41 80.89 367.79 92.5 356.06 104.07 344.37 105.94 326.82 105.38 310.38 104.84 294.61 99.8 279.65 89.5 267.7 78.28 254.68 64.01 242.59 46.82 242.43 29.53 242.27 15.3 254.41 3.36 266.92-8.22 279.06-17.5 293.61-18.03 310.38-18.57 327.65-12.23 345.02 0.54 356.66 12.84 367.88 30.17 369.63 46.82 369.52" fill="rgba(238, 0, 0, 1)" stroke="none"></path><path d="M55.82 382.52C72.32 382.41 89.89 380.79 101.5 369.06 113.07 357.37 114.94 339.82 114.38 323.38 113.84 307.61 108.8 292.65 98.5 280.7 87.28 267.68 73.01 255.59 55.82 255.43 38.53 255.27 24.3 267.41 12.36 279.92 0.78 292.06-8.5 306.61-9.03 323.38-9.57 340.65-3.23 358.02 9.54 369.66 21.84 380.88 39.17 382.63 55.82 382.52" fill="none" stroke-width="6" stroke="#a70000"></path><path d="M-25.19 91.07C0.25 88.12 19.04 68.67 35.73 49.25 50.81 31.7 61.83 11.44 63.09-11.67 64.42-36.2 58.42-60.69 42.74-79.6 25.46-100.44 1.86-117.03-25.19-118.15-53.14-119.31-79.38-105.42-99-85.48-118.45-65.71-129.38-39.39-129.95-11.67-130.53 16.67-122.35 45.4-102.11 65.25-82.03 84.94-53.12 94.31-25.19 91.07" fill="rgba(22, 67, 124, 1)" stroke="none"></path><path d="M-5.19 81.07C20.25 78.12 39.04 58.67 55.73 39.25 70.81 21.7 81.83 1.44 83.09-21.67 84.42-46.2 78.42-70.69 62.74-89.6 45.46-110.44 21.86-127.03-5.19-128.15-33.14-129.31-59.38-115.42-79-95.48-98.45-75.71-109.38-49.39-109.95-21.67-110.53 6.67-102.35 35.4-82.11 55.25-62.03 74.94-33.12 84.31-5.19 81.07" fill="none" stroke-width="6" stroke="#0f2f57"></path></g><defs><clipPath id="SvgjsClipPath1087"><rect width="1440" height="560" x="0" y="0"></rect></clipPath></defs></svg>