<svg xmlns="http://www.w3.org/2000/svg" version="1.1" xmlns:xlink="http://www.w3.org/1999/xlink" xmlns:svgjs="http://svgjs.dev/svgjs" width="1440" height="560" preserveAspectRatio="none" viewBox="0 0 1440 560"><g clip-path="url(&quot;#SvgjsClipPath1096&quot;)" fill="none"><path d="M77.73 443.78C99.85 444.89 120.25 431.95 135.06 415.48 149.1 399.86 155.55 379.13 154.73 358.15 153.95 338 143.99 320.35 130.77 305.11 116.25 288.37 99.87 270.29 77.73 269.38 55.06 268.45 36.2 284.53 20.15 300.57 4.09 316.62-12.27 335.48-11.08 358.15-9.92 380.18 10.01 394.68 25.89 409.99 41.32 424.87 56.32 442.7 77.73 443.78" fill="rgba(238, 0, 0, 1)" stroke="none"></path><path d="M83.73 435.78C105.85 436.89 126.25 423.95 141.06 407.48 155.1 391.86 161.55 371.13 160.73 350.15 159.95 330 149.99 312.35 136.77 297.11 122.25 280.37 105.87 262.29 83.73 261.38 61.06 260.45 42.2 276.53 26.15 292.57 10.09 308.62-6.27 327.48-5.08 350.15-3.92 372.18 16.01 386.68 31.89 401.99 47.32 416.87 62.32 434.7 83.73 435.78" fill="none" stroke-width="6" stroke="#a70000"></path><path d="M1267.88 353.04C1290.55 352.42 1312.94 342.88 1327.08 325.15 1340.06 308.87 1339.25 286.68 1337.31 265.95 1335.59 247.62 1329.36 230.48 1316.93 216.9 1303.85 202.61 1287.16 191.89 1267.88 190.07 1246.64 188.06 1223.07 191 1208.59 206.66 1194.41 222 1198.28 245.07 1197.73 265.95 1197.15 287.76 1191.68 311.47 1205.37 328.46 1219.97 346.59 1244.61 353.67 1267.88 353.04" fill="rgba(22, 67, 124, 1)" stroke="none"></path><path d="M1272.88 361.04C1295.55 360.42 1317.94 350.88 1332.08 333.15 1345.06 316.87 1344.25 294.68 1342.31 273.95 1340.59 255.62 1334.36 238.48 1321.93 224.9 1308.85 210.61 1292.16 199.89 1272.88 198.07 1251.64 196.06 1228.07 199 1213.59 214.66 1199.41 230 1203.28 253.07 1202.73 273.95 1202.15 295.76 1196.68 319.47 1210.37 336.46 1224.97 354.59 1249.61 361.67 1272.88 361.04" fill="none" stroke-width="6" stroke="#0f2f57"></path><path d="M8.02 153.64C31.33 153.71 54.38 145.29 70.31 128.27 85.78 111.74 89.71 88.62 90.07 65.98 90.44 42.87 87.95 18.7 72.31 1.69 56.14-15.89 31.91-23.13 8.02-23.24-16-23.35-40.53-16.51-56.88 1.08-72.77 18.18-75.46 42.65-74.91 65.98-74.38 88.62-69.45 111.43-53.88 127.88-37.92 144.76-15.21 153.57 8.02 153.64" fill="rgba(22, 67, 124, 1)" stroke="none"></path><path d="M0.02 137.64C23.33 137.71 46.38 129.29 62.31 112.27 77.78 95.74 81.71 72.62 82.07 49.98 82.44 26.87 79.95 2.7 64.31-14.31 48.14-31.89 23.91-39.13 0.02-39.24-24-39.35-48.53-32.51-64.88-14.92-80.77 2.18-83.46 26.65-82.91 49.98-82.38 72.62-77.45 95.43-61.88 111.88-45.92 128.76-23.21 137.57 0.02 137.64" fill="none" stroke-width="6" stroke="#0f2f57"></path><path d="M656.21 473.36C673.46 472.87 688.54 463.54 701.06 451.66 714 439.38 727.02 424.64 726.32 406.81 725.63 389.36 711.05 376.56 697.66 365.36 685.73 355.38 671.7 349.57 656.21 348.16 638.77 346.58 618.94 344.78 606.49 357.09 594.01 369.43 596.51 389.26 596.92 406.81 597.32 423.76 597.48 441.6 608.76 454.26 620.55 467.49 638.5 473.86 656.21 473.36" fill="rgba(238, 0, 0, 1)" stroke="none"></path><path d="M639.21 479.36C656.46 478.87 671.54 469.54 684.06 457.66 697 445.38 710.02 430.64 709.32 412.81 708.63 395.36 694.05 382.56 680.66 371.36 668.73 361.38 654.7 355.57 639.21 354.16 621.77 352.58 601.94 350.78 589.49 363.09 577.01 375.43 579.51 395.26 579.92 412.81 580.32 429.76 580.48 447.6 591.76 460.26 603.55 473.49 621.5 479.86 639.21 479.36" fill="none" stroke-width="6" stroke="#a70000"></path><path d="M1018.9 164.31C1040.28 164.27 1060.6 155.03 1075.47 139.67 1090.1 124.55 1096.79 104.13 1097.5 83.1 1098.24 61.22 1094.26 38.67 1079.44 22.56 1064.08 5.87 1041.44-4.86 1018.9-2.31 997.93 0.07 984.63 19.05 970.68 34.88 958.01 49.25 945.19 64 943.63 83.1 941.95 103.72 948.07 124.7 962.13 139.87 976.69 155.58 997.48 164.35 1018.9 164.31" fill="rgba(238, 0, 0, 1)" stroke="none"></path><path d="M1000.9 180.31C1022.28 180.27 1042.6 171.03 1057.47 155.67 1072.1 140.55 1078.79 120.13 1079.5 99.1 1080.24 77.22 1076.26 54.67 1061.44 38.56 1046.08 21.87 1023.44 11.14 1000.9 13.69 979.93 16.07 966.63 35.05 952.68 50.88 940.01 65.25 927.19 80 925.63 99.1 923.95 119.72 930.07 140.7 944.13 155.87 958.69 171.58 979.48 180.35 1000.9 180.31" fill="none" stroke-width="6" stroke="#a70000"></path><path d="M236.65 107.35C263.7 106.34 291.21 97.76 308.68 77.08 325.1 57.64 322.01 30.48 323.08 5.05 324.23-22.23 331.89-51.86 315.02-73.32 296.92-96.34 265.77-107.95 236.65-104.87 209.55-102 192.16-77.97 173.28-58.32 154.98-39.29 133.65-21.22 130.99 5.05 128.11 33.5 138.47 62.79 159.02 82.68 179.29 102.31 208.45 108.4 236.65 107.35" fill="rgba(238, 0, 0, 1)" stroke="none"></path><path d="M256.65 94.35C283.7 93.34 311.21 84.76 328.68 64.08 345.1 44.64 342.01 17.48 343.08-7.95 344.23-35.23 351.89-64.86 335.02-86.32 316.92-109.34 285.77-120.95 256.65-117.87 229.55-115 212.16-90.97 193.28-71.32 174.98-52.29 153.65-34.22 150.99-7.95 148.11 20.5 158.47 49.79 179.02 69.68 199.29 89.31 228.45 95.4 256.65 94.35" fill="none" stroke-width="6" stroke="#a70000"></path><path d="M1252.16 532.96C1268.79 533.15 1287.57 535.23 1299.19 523.34 1310.76 511.5 1307.62 492.86 1307.53 476.31 1307.44 459.9 1310.26 441.42 1298.69 429.78 1287.1 418.12 1268.57 419.52 1252.16 420.58 1237.12 421.55 1222.87 425.8 1211.28 435.43 1198.33 446.18 1186.06 459.51 1185.07 476.31 1184.04 493.81 1192.79 510.98 1206.18 522.29 1218.68 532.84 1235.8 532.77 1252.16 532.96" fill="rgba(22, 67, 124, 1)" stroke="none"></path><path d="M1264.16 524.96C1280.79 525.15 1299.57 527.23 1311.19 515.34 1322.76 503.5 1319.62 484.86 1319.53 468.31 1319.44 451.9 1322.26 433.42 1310.69 421.78 1299.1 410.12 1280.57 411.52 1264.16 412.58 1249.12 413.55 1234.87 417.8 1223.28 427.43 1210.33 438.18 1198.06 451.51 1197.07 468.31 1196.04 485.81 1204.79 502.98 1218.18 514.29 1230.68 524.84 1247.8 524.77 1264.16 524.96" fill="none" stroke-width="6" stroke="#0f2f57"></path><path d="M457.27 380.64C478.01 382.65 500.26 379.41 515.33 365.01 530.64 350.38 534.47 328.12 534.38 306.95 534.29 285.88 529.76 264.26 514.86 249.36 499.96 234.46 478.31 228.75 457.27 229.84 437.3 230.87 419.93 241.34 405.35 255.03 390.17 269.28 374.28 286.15 375.14 306.95 375.98 327.32 394.29 341.13 409.47 354.75 423.49 367.33 438.52 378.82 457.27 380.64" fill="rgba(22, 67, 124, 1)" stroke="none"></path><path d="M439.27 370.64C460.01 372.65 482.26 369.41 497.33 355.01 512.64 340.38 516.47 318.12 516.38 296.95 516.29 275.88 511.76 254.26 496.86 239.36 481.96 224.46 460.31 218.75 439.27 219.84 419.3 220.87 401.93 231.34 387.35 245.03 372.17 259.28 356.28 276.15 357.14 296.95 357.98 317.32 376.29 331.13 391.47 344.75 405.49 357.33 420.52 368.82 439.27 370.64" fill="none" stroke-width="6" stroke="#0f2f57"></path></g><defs><clipPath id="SvgjsClipPath1096"><rect width="1440" height="560" x="0" y="0"></rect></clipPath></defs></svg>